<?xml version="1.0" encoding="utf-8"?>
<!-- Generator: Adobe Illustrator 16.0.0, SVG Export Plug-In . SVG Version: 6.00 Build 0)  -->
<!DOCTYPE svg PUBLIC "-//W3C//DTD SVG 1.1//EN" "http://www.w3.org/Graphics/SVG/1.1/DTD/svg11.dtd">
<svg version="1.1" id="Layer_1" xmlns="http://www.w3.org/2000/svg" xmlns:xlink="http://www.w3.org/1999/xlink" x="0px" y="0px"
	 width="51.968px" height="53.773px" viewBox="0 0 51.968 53.773" enable-background="new 0 0 51.968 53.773" xml:space="preserve">
<g>
	<defs>
		<rect id="SVGID_1_" width="51.968" height="53.773"/>
	</defs>
	<clipPath id="SVGID_2_">
		<use xlink:href="#SVGID_1_"  overflow="visible"/>
	</clipPath>
	<g clip-path="url(#SVGID_2_)">
		<defs>
			<rect id="SVGID_3_" width="51.968" height="53.773"/>
		</defs>
		<clipPath id="SVGID_4_">
			<use xlink:href="#SVGID_3_"  overflow="visible"/>
		</clipPath>
		<g clip-path="url(#SVGID_4_)">
			<g>
				<defs>
					<rect id="SVGID_5_" x="-9" y="-8" width="69.969" height="62.773"/>
				</defs>
				<clipPath id="SVGID_6_">
					<use xlink:href="#SVGID_5_"  overflow="visible"/>
				</clipPath>
				<path clip-path="url(#SVGID_6_)" fill="#222F62" d="M28.848,0C10.953,0,0,11.857,0,26.887C0,41.99,10.667,53.773,27.633,53.773
					c11.598,0,18.039-5.148,21.477-7.479v-5.788c0-5.575,0.5-7.833,2.859-11.079v-0.141H40.23v0.141
					c2.574,3.035,3.293,5.504,3.293,11.718c0,7.406-6.586,11.22-15.891,11.22c-14.961,0-20.902-11.152-20.902-25.406
					c0-14.326,6.871-25.547,21.477-25.547c9.16,0,14.672,3.882,19.824,12.914l0.648-0.212L47.176,3.388
					C43.523,2.047,37.082,0,28.848,0"/>
			</g>
		</g>
		<g clip-path="url(#SVGID_4_)">
			<g>
				<defs>
					<rect id="SVGID_7_" x="7.59" y="0.523" width="43.309" height="45.904"/>
				</defs>
				<clipPath id="SVGID_8_">
					<use xlink:href="#SVGID_7_"  overflow="visible"/>
				</clipPath>
				<path clip-path="url(#SVGID_8_)" fill="#222F62" d="M28.809,8.523H16.59v0.102c1.632,2.57,2.043,4.035,2.043,7.462v21.779
					c0,3.428-0.411,4.892-2.043,7.462v0.101h8.281v-0.101c-1.688-2.57-2.047-3.982-2.047-7.462v-8.117h5.27
					c8.949,0,13.805-4.688,13.805-11.293C41.898,13.264,38.883,8.523,28.809,8.523 M22.824,28.741V9.634
					c2.609-0.103,4.094-0.103,5.219-0.103c5.215,0,9.563,1.766,9.563,9.026c0,5.294-2.762,10.184-9.613,10.184H22.824z"/>
			</g>
		</g>
	</g>
</g>
</svg>
