<?xml version="1.0" encoding="utf-8"?>
<!-- Generator: Adobe Illustrator 16.0.0, SVG Export Plug-In . SVG Version: 6.00 Build 0)  -->
<!DOCTYPE svg PUBLIC "-//W3C//DTD SVG 1.1//EN" "http://www.w3.org/Graphics/SVG/1.1/DTD/svg11.dtd">
<svg version="1.1" id="Layer_1" xmlns="http://www.w3.org/2000/svg" xmlns:xlink="http://www.w3.org/1999/xlink" x="0px" y="0px"
	 width="543.456px" height="97.327px" viewBox="0 0 543.456 97.327" enable-background="new 0 0 543.456 97.327"
	 xml:space="preserve">
<g>
	<path fill="#112A64" d="M523.269,65.323c1.733-4.245,10.224-26.424,13.342-34.827c1.126-3.032,2.166-5.285,2.772-6.411
		c0.693-0.953,1.387-1.56,2.08-1.906c0.605-0.347,1.299-0.52,1.992-0.607v-0.693h-11.177v0.693c0.953,0.087,1.646,0.26,2.427,0.693
		c1.04,0.52,1.473,1.3,1.473,2.773c0,1.559-0.26,3.032-1.3,5.804l-7.623,20.273h-0.26l-7.364-20.533
		c-0.953-2.945-1.561-4.505-1.561-5.718c0-1.299,0.607-1.992,1.127-2.425c0.693-0.52,1.819-0.78,2.945-0.867v-0.693h-15.334v0.693
		c0.779,0.087,1.646,0.347,2.512,0.78c1.213,0.606,1.733,1.559,2.34,3.119c0.606,1.213,1.56,3.465,2.772,6.757l8.75,23.652
		c0.521,1.213,0.606,1.992,0.26,3.985c0,0.605-1.905,5.718-2.166,6.237c-1.905,4.506-3.552,7.884-5.545,7.884
		c-0.692,0-1.126-0.086-1.559-0.434c-0.347-0.173-0.693-0.605-1.127-1.126c-0.953-1.213-1.732-1.732-3.032-1.732
		c-1.733,0-2.859,1.3-2.859,3.031c0,2.166,1.993,3.899,4.766,3.899c3.466,0,5.718-1.559,7.451-4.418
		C521.19,70.521,522.143,68.095,523.269,65.323 M505.164,54.234c-1.646,2.167-3.986,3.292-6.585,3.292
		c-4.158,0-5.284-1.733-5.284-5.112l0.173-29.715h10.136v-1.82h-10.136V7.884h-0.866c-2.858,9.876-5.718,12.995-10.396,13.602v0.866
		c1.473,0.087,4.158,0.26,5.892,0.26c-0.087,2.079-0.174,28.416-0.174,29.283c0,3.205,0.606,4.851,2.08,6.064
		c1.731,1.473,3.638,2.079,6.67,2.079c4.072,0,7.277-2.166,9.097-5.284L505.164,54.234z M463.925,30.322h-0.26l0.173-8.923
		c0-0.26-0.173-0.52-0.606-0.52h-9.79v0.78c0.953,0.087,1.993,0.173,3.032,0.866c0.78,0.52,1.387,1.3,1.56,2.426
		c0.261,1.126,0.261,4.505,0.261,5.978v18.02c0,1.993,0,4.245-0.348,5.805c-0.52,1.906-1.126,2.425-2.426,3.118
		c-0.866,0.347-1.731,0.52-2.339,0.606v0.78h15.855v-0.78c-0.78-0.087-1.301-0.173-2.166-0.52c-0.607-0.26-1.214-0.78-1.733-1.733
		c-0.866-1.646-1.386-3.377-1.386-7.796v-8.057c0-2.252,0.086-4.765,0.173-5.458c0.866-6.584,4.678-11.956,7.277-11.956
		c1.04,0,1.732,0.694,2.253,1.906c0.605,1.387,1.213,2.773,3.292,2.773s3.031-1.646,3.031-3.292c0-1.473-0.52-2.426-1.126-3.119
		c-0.865-0.78-2.253-1.213-3.812-1.213c-2.772,0-4.591,1.126-6.151,2.426C466.872,24.085,465.311,26.251,463.925,30.322
		 M448.591,47.476l-1.474-0.433c-1.646,5.631-5.024,10.483-12.215,10.483c-3.206,0-6.237-1.04-8.49-3.466
		c-2.513-2.772-4.072-8.23-4.072-13.861c0-0.866,0-1.819,0.087-2.686h25.73c0.174-1.126,0.174-2.686,0.174-3.725
		c0-6.151-4.245-13.775-14.815-13.775c-9.703,0-17.327,8.663-17.327,20.186c0,5.804,1.562,10.829,5.112,14.728
		c3.119,3.464,7.277,5.111,12.389,5.111C441.054,60.038,446.425,55.447,448.591,47.476 M427.365,23.825
		c1.733-1.56,3.899-2.339,6.238-2.339c2.6,0,4.332,0.693,5.892,1.906c1.732,1.472,2.858,3.985,2.858,8.143
		c0,3.726-0.605,4.419-3.465,4.419H422.6C423.208,30.582,425.026,25.731,427.365,23.825 M378.938,67.576
		c0,1.992,0.086,3.983-0.26,5.458c-0.521,2.079-1.473,2.685-2.34,3.118c-0.693,0.347-1.386,0.434-2.252,0.52v0.78h15.334v-0.78
		c-0.953-0.086-1.906-0.173-2.686-0.605c-0.867-0.434-1.732-1.128-2.08-3.032c-0.346-1.475-0.346-3.466-0.346-5.458V55.793h0.434
		c2.771,3.206,6.497,4.245,10.136,4.245c9.01,0,17.153-6.757,17.153-20.012c0-14.382-7.363-20.013-15.594-20.013
		c-5.545,0-9.53,3.205-12.042,7.97h-0.26l0.086-6.411c0-0.519-0.26-0.693-0.606-0.693h-9.963v0.693
		c1.126,0.087,2.686,0.434,3.726,1.3c0.692,0.52,1.126,1.299,1.386,2.426c0.174,1.126,0.174,3.552,0.174,4.938V67.576z
		 M405.968,40.026c0,13.601-4.765,18.713-11.175,18.713c-3.467,0-5.72-1.04-7.452-3.032c-1.819-2.08-3.032-5.025-3.032-10.57V34.568
		c0-3.119,1.213-6.325,3.205-8.751c1.993-2.425,4.765-4.071,8.057-4.071C401.29,21.746,405.968,25.904,405.968,40.026
		 M341.166,40.026c0-7.451,1.646-12.649,4.765-15.681c1.993-2.08,4.765-2.946,7.191-2.946c2.339,0,5.11,0.78,7.189,2.946
		c3.119,3.119,4.679,8.403,4.679,15.681c0,7.19-1.646,12.562-4.679,15.681c-2.079,2.165-4.765,2.945-7.189,2.945
		c-2.427,0-5.198-0.78-7.278-3.032C342.811,52.501,341.166,47.216,341.166,40.026 M335.101,40.026
		c0,12.562,8.75,20.012,18.021,20.012c9.27,0,18.02-7.624,18.02-20.099s-8.75-19.926-18.02-19.926
		C343.851,20.013,335.101,27.464,335.101,40.026 M317.601,30.322h-0.26l0.173-8.923c0-0.26-0.173-0.52-0.606-0.52h-9.79v0.78
		c0.953,0.087,1.993,0.173,3.032,0.866c0.78,0.52,1.388,1.3,1.561,2.426c0.26,1.126,0.26,4.505,0.26,5.978v18.02
		c0,1.993,0,4.245-0.347,5.805c-0.521,1.906-1.126,2.425-2.427,3.118c-0.865,0.347-1.731,0.52-2.339,0.606v0.78h15.854v-0.78
		c-0.779-0.087-1.299-0.173-2.165-0.52c-0.607-0.26-1.212-0.78-1.733-1.733c-0.866-1.646-1.386-3.377-1.386-7.796v-8.057
		c0-2.252,0.086-4.765,0.173-5.458c0.866-6.584,4.678-11.956,7.277-11.956c1.04,0,1.732,0.694,2.253,1.906
		c0.605,1.387,1.213,2.773,3.292,2.773s3.032-1.646,3.032-3.292c0-1.473-0.521-2.426-1.126-3.119
		c-0.866-0.78-2.253-1.213-3.813-1.213c-2.771,0-4.592,1.126-6.151,2.426C320.547,24.085,318.987,26.251,317.601,30.322
		 M281.907,58.479c-0.692-0.087-1.732-0.26-2.513-0.52c-1.472-0.433-2.425-1.213-3.032-2.772c-0.866-2.166-1.126-5.718-1.126-10.31
		V31.969c1.213,0.173,5.979,0.346,7.104,0.346c7.451,0,11.87-1.559,14.814-3.292c4.071-2.426,6.758-6.844,6.758-12.909
		c0-9.876-7.885-13.775-18.974-13.775h-22.438v0.867c1.039,0.086,1.819,0.26,2.339,0.433c1.299,0.52,2.252,1.213,2.945,2.686
		c1.04,2.252,1.127,5.804,1.127,10.309v28.33c0,4.591-0.174,8.057-1.04,10.309c-0.693,1.733-1.56,2.253-2.686,2.686
		c-0.866,0.347-1.906,0.433-2.599,0.52v0.78h19.32V58.479z M275.236,9.097c0-1.733-0.087-3.292,0.606-4.245
		c0.607-0.78,1.906-1.04,3.639-0.953c0,0,4.766,0.086,4.678,0.086c8.231,0,13.17,3.466,13.17,12.822
		c0,2.859-0.521,6.845-2.427,9.184c-1.993,2.425-4.938,4.591-12.389,4.591c-1.126,0-6.151-0.26-7.277-0.519V9.097z M237.464,49.036
		V30.669c0-4.505-1.386-6.931-3.205-8.49c-1.733-1.386-3.899-2.166-6.671-2.166c-3.292,0-6.238,0.953-8.144,2.252
		c-2.079,1.213-4.332,3.293-5.804,6.845h-0.26c0,0,0.173-7.364,0.173-7.711c0-0.433-0.173-0.52-0.52-0.52h-9.963v0.693
		c1.04,0.087,2.339,0.26,3.119,0.867c0.866,0.433,1.213,1.126,1.473,2.425c0.26,1.127,0.26,3.552,0.26,5.978v17.067
		c0,2.34,0,5.198-0.174,6.325c-0.346,2.252-1.386,2.945-3.292,3.725c-0.52,0.173-1.473,0.433-2.079,0.52v0.78h16.461v-0.78
		c-0.78-0.087-1.387-0.26-2.166-0.52c-1.82-0.78-2.426-1.386-2.859-3.032c-0.347-1.473-0.347-4.245-0.347-6.498v-9.356
		c0-4.072,0.174-6.065,1.213-8.837c1.646-4.938,5.718-7.451,10.05-7.451c2.339,0,3.985,0.693,5.198,1.993
		c1.299,1.386,1.993,3.292,1.993,7.277v16.374c0,2.253,0.086,4.765-0.347,6.411c-0.52,1.82-1.126,2.426-2.772,3.119
		c-0.52,0.173-1.387,0.433-2.08,0.52v0.78h15.855v-0.78c-0.693-0.087-1.56-0.347-2.166-0.606c-1.733-0.779-2.253-1.472-2.686-3.205
		C237.378,53.367,237.464,51.115,237.464,49.036 M169.976,40.026c0-7.451,1.646-12.649,4.765-15.681
		c1.992-2.08,4.765-2.946,7.19-2.946c2.34,0,5.112,0.78,7.191,2.946c3.119,3.119,4.678,8.403,4.678,15.681
		c0,7.19-1.646,12.562-4.678,15.681c-2.079,2.165-4.765,2.945-7.191,2.945c-2.425,0-5.198-0.78-7.277-3.032
		C171.622,52.501,169.976,47.216,169.976,40.026 M163.911,40.026c0,12.562,8.75,20.012,18.02,20.012s18.02-7.624,18.02-20.099
		s-8.75-19.926-18.02-19.926S163.911,27.464,163.911,40.026 M151.003,52.588h0.26v6.411c0,0.433,0.173,0.518,0.433,0.518
		c0.607,0,8.577-0.172,9.963-0.172v-0.779c-0.606-0.087-2.079-0.26-2.859-0.779c-1.299-0.693-1.906-1.646-2.079-3.119
		c-0.173-1.3-0.173-3.206-0.173-4.678V14.815c0-4.678,0.173-11.089,0.26-14.122c0-0.52-0.087-0.693-0.52-0.693h-10.569v0.693
		c1.212,0.087,2.512,0.433,3.378,0.953c0.867,0.52,1.386,0.867,1.646,2.426c0.26,1.473,0.26,6.671,0.26,9.617v12.475h-0.086
		c-1.387-3.119-4.332-6.151-10.05-6.151c-8.317,0-17.5,6.064-17.5,20.013c0,13.428,8.143,20.012,16.027,20.012
		C145.285,60.038,149.357,56.66,151.003,52.588 M150.917,45.137c0,7.191-3.466,12.909-9.963,12.909
		c-6.758,0-11.523-4.852-11.523-17.934c0-12.735,5.198-18.626,11.696-18.626c3.032,0,4.938,0.866,6.584,2.512
		c1.906,1.906,3.206,4.678,3.206,9.963V45.137z M106.04,30.322h-0.26l0.174-8.923c0-0.26-0.174-0.52-0.607-0.52h-9.789v0.78
		c0.953,0.087,1.992,0.173,3.032,0.866c0.779,0.52,1.386,1.3,1.559,2.426c0.26,1.126,0.26,4.505,0.26,5.978v18.02
		c0,1.993,0,4.245-0.346,5.805c-0.52,1.906-1.127,2.425-2.426,3.118c-0.867,0.347-1.733,0.52-2.339,0.606v0.78h15.854v-0.78
		c-0.78-0.087-1.3-0.173-2.166-0.52c-0.606-0.26-1.213-0.78-1.733-1.733c-0.866-1.646-1.386-3.377-1.386-7.796v-8.057
		c0-2.252,0.087-4.765,0.173-5.458c0.867-6.584,4.679-11.956,7.278-11.956c1.039,0,1.732,0.694,2.252,1.906
		c0.607,1.387,1.213,2.773,3.292,2.773c2.08,0,3.033-1.646,3.033-3.292c0-1.473-0.52-2.426-1.127-3.119
		c-0.866-0.78-2.252-1.213-3.812-1.213c-2.772,0-4.591,1.126-6.151,2.426C108.986,24.085,107.427,26.251,106.04,30.322
		 M62.637,40.026c0-7.451,1.646-12.649,4.764-15.681c1.993-2.08,4.765-2.946,7.191-2.946c2.339,0,5.112,0.78,7.191,2.946
		c3.119,3.119,4.678,8.403,4.678,15.681c0,7.19-1.646,12.562-4.678,15.681c-2.079,2.165-4.765,2.945-7.191,2.945
		c-2.426,0-5.198-0.78-7.277-3.032C64.283,52.501,62.637,47.216,62.637,40.026 M56.572,40.026c0,12.562,8.75,20.012,18.02,20.012
		s18.02-7.624,18.02-20.099s-8.75-19.926-18.02-19.926S56.572,27.464,56.572,40.026 M39.939,42.538v5.458
		c0,4.245-0.52,7.277-1.386,8.229c-1.386,1.561-5.198,2.166-9.53,2.166c-4.158,0-7.017-0.52-10.31-2.252
		C12.129,52.761,7.364,44.877,7.364,30.756c0-12.996,3.985-20.013,7.971-23.565c3.032-2.772,6.411-4.245,11.522-4.245
		c6.584,0,11.003,2.252,14.122,7.017c1.992,2.859,3.552,6.844,4.591,11.263h1.04V3.639h-1.04l-1.732,3.292h-0.174
		c-1.906-2.166-7.797-5.718-16.807-5.718C13.775,1.213,0,11.609,0,30.756c0,18.366,11.609,29.715,29.196,29.715
		c2.946,0,8.144-0.433,11.523-1.039c2.425-0.433,4.331-1.04,5.544-1.56V44.704c0-4.852,0.26-6.844,1.04-8.144
		c0.693-1.126,1.646-1.646,2.686-1.992c0.866-0.347,1.732-0.52,2.512-0.607v-0.866H33.528v0.866c0.78,0.087,1.473,0.26,2.253,0.52
		c1.386,0.52,2.252,1.213,2.945,2.166C39.679,38.206,39.939,39.852,39.939,42.538"/>
	<path fill="#112A64" d="M486.836,93.033c0,0.866,0.038,1.732-0.112,2.372c-0.227,0.904-0.641,1.169-1.018,1.356
		c-0.302,0.151-0.603,0.189-0.979,0.226v0.34h6.667v-0.34c-0.414-0.036-0.829-0.074-1.168-0.263
		c-0.376-0.188-0.753-0.49-0.904-1.319c-0.15-0.64-0.15-1.506-0.15-2.372V87.91h0.188c1.205,1.394,2.825,1.846,4.407,1.846
		c3.918,0,7.459-2.938,7.459-8.701c0-6.253-3.202-8.702-6.781-8.702c-2.411,0-4.143,1.395-5.236,3.466h-0.112l0.038-2.788
		c0-0.226-0.113-0.301-0.265-0.301h-4.332v0.301c0.49,0.038,1.168,0.189,1.62,0.565c0.301,0.226,0.49,0.565,0.604,1.055
		c0.074,0.49,0.074,1.544,0.074,2.147V93.033z M498.589,81.055c0,5.914-2.071,8.136-4.859,8.136c-1.506,0-2.486-0.452-3.239-1.317
		c-0.791-0.904-1.318-2.186-1.318-4.597v-4.596c0-1.355,0.527-2.749,1.394-3.805c0.867-1.055,2.072-1.77,3.503-1.77
		C496.556,73.106,498.589,74.915,498.589,81.055 M481.639,85.349v-7.76c0-2.034,0.075-3.503,0.075-4.595
		c0-0.227-0.112-0.265-0.302-0.265h-4.369v0.301c0.452,0.038,1.055,0.151,1.432,0.415c0.414,0.302,0.564,0.603,0.678,1.167
		c0.075,0.49,0.075,1.582,0.075,2.147v5.086c0,1.167-0.037,2.712-0.302,3.578c-0.339,0.979-0.903,1.884-1.619,2.486
		c-0.679,0.603-1.506,0.941-2.448,0.941c-1.055,0-1.846-0.227-2.373-0.753c-0.716-0.641-1.017-1.695-1.017-3.314v-7.271
		c0-1.62,0.036-3.428,0.074-4.52c0-0.227-0.112-0.265-0.264-0.265h-4.444v0.301c0.641,0.038,1.093,0.113,1.47,0.378
		c0.225,0.112,0.451,0.377,0.602,1.017c0.076,0.49,0.151,1.13,0.151,2.109v8.174c0,1.959,0.414,2.75,0.941,3.428
		c1.167,1.432,2.749,1.62,3.917,1.62c1.507,0,2.6-0.49,3.503-1.168c0.717-0.565,1.13-1.092,1.771-2.373h0.113v2.938
		c0,0.151,0.112,0.303,0.226,0.303c0.226,0,3.616-0.038,4.407-0.038v-0.339c-0.452-0.038-0.979-0.113-1.318-0.302
		c-0.564-0.302-0.755-0.716-0.867-1.394C481.639,86.743,481.639,85.952,481.639,85.349 M453.462,81.055
		c0-3.24,0.717-5.5,2.072-6.818c0.866-0.903,2.072-1.28,3.127-1.28c1.018,0,2.222,0.339,3.126,1.28
		c1.356,1.356,2.035,3.653,2.035,6.818c0,3.126-0.717,5.462-2.035,6.818c-0.904,0.94-2.072,1.279-3.126,1.279
		c-1.055,0-2.261-0.339-3.165-1.317C454.179,86.479,453.462,84.181,453.462,81.055 M450.827,81.055c0,5.462,3.804,8.701,7.835,8.701
		c4.03,0,7.835-3.315,7.835-8.739s-3.805-8.664-7.835-8.664C454.63,72.353,450.827,75.593,450.827,81.055 M443.971,76.836h-0.113
		l0.075-3.88c0-0.113-0.075-0.227-0.264-0.227h-4.257v0.339c0.415,0.038,0.867,0.075,1.319,0.377
		c0.339,0.227,0.602,0.565,0.678,1.055c0.113,0.49,0.113,1.96,0.113,2.599v7.835c0,0.867,0,1.846-0.151,2.524
		c-0.226,0.829-0.49,1.055-1.055,1.355c-0.376,0.151-0.753,0.227-1.018,0.265v0.339h6.895v-0.339
		c-0.339-0.038-0.565-0.075-0.942-0.227c-0.264-0.113-0.526-0.339-0.753-0.753c-0.377-0.716-0.603-1.469-0.603-3.391v-3.503
		c0-0.979,0.037-2.071,0.075-2.373c0.377-2.863,2.033-5.198,3.164-5.198c0.451,0,0.754,0.301,0.979,0.829
		c0.264,0.602,0.528,1.204,1.432,1.204c0.904,0,1.318-0.715,1.318-1.431c0-0.641-0.226-1.055-0.489-1.355
		c-0.377-0.339-0.979-0.528-1.658-0.528c-1.204,0-1.995,0.49-2.674,1.056C445.251,74.124,444.573,75.064,443.971,76.836
		 M433.801,82.146v2.373c0,1.847-0.227,3.164-0.604,3.579c-0.602,0.678-2.26,0.941-4.143,0.941c-1.809,0-3.052-0.227-4.482-0.979
		c-2.864-1.469-4.935-4.896-4.935-11.037c0-5.649,1.731-8.701,3.465-10.246c1.318-1.205,2.788-1.846,5.01-1.846
		c2.863,0,4.784,0.98,6.14,3.052c0.866,1.243,1.544,2.975,1.996,4.897h0.452v-7.647h-0.452l-0.753,1.432h-0.075
		c-0.829-0.941-3.391-2.486-7.308-2.486c-5.688,0-11.677,4.521-11.677,12.845c0,7.986,5.047,12.92,12.693,12.92
		c1.281,0,3.541-0.188,5.011-0.451c1.055-0.188,1.883-0.452,2.411-0.679v-5.725c0-2.11,0.112-2.977,0.451-3.541
		c0.302-0.49,0.717-0.716,1.168-0.867c0.376-0.15,0.753-0.226,1.093-0.264v-0.376h-8.249v0.376c0.339,0.038,0.64,0.113,0.979,0.227
		c0.604,0.227,0.979,0.527,1.281,0.942C433.688,80.264,433.801,80.979,433.801,82.146"/>
</g>
</svg>
